{"title":"Khiladi 786 (2012) HIndi HD SCAM MPEG- Exclusive","uid":7898723,"size":925827160,"categoryP":"video","categoryS":"movies","magnet":"?xt=urn:btih:e3f400bc09d7077f224257d8c87a0f68a93f571f&amp;dn=Khiladi+786+%282012%29+HIndi+HD+SCAM+MPEG-+Exclusive&amp;tr=udp%3A%2F%2Ftracker.openbittorrent.com%3A80&amp;tr=udp%3A%2F%2Fopen.demonii.com%3A1337&amp;tr=udp%3A%2F%2Ftracker.coppersurfer.tk%3A6969&amp;tr=udp%3A%2F%2Fexodus.desync.com%3A6969","seeders":1,"leechers":0,"uploader":"tykoon123","files":-1,"time":1354907450,"description":"Poster: &lt;a href=&quot;\nhttp://imgr.us/images/s7k5tmr8cpyi7zscdku6.jpg&quot; rel=&quot;nofollow&quot; target=&quot;_NEW&quot;&gt;\nhttp://imgr.us/images/s7k5tmr8cpyi7zscdku6.jpg&lt;/a&gt;\n\nInfo:\n\nFormat : MPEG-PS\nFile size : 883 MiB\nDuration : 2h 1mn\nOverall bit rate mode : Variable\nOverall bit rate : 1 015 Kbps\n\nVideo\nID : 224 (0xE0)\nFormat : MPEG Video\nFormat version : Version 2\nFormat profile : Main@Main\nFormat settings, BVOP : Yes\nFormat settings, Matrix : Default\nDuration : 2h 1mn\nBit rate mode : Variable\nBit rate : 867 Kbps\nMaximum bit rate : 9 672 Kbps\nWidth : 352 pixels\nHeight : 288 pixels\nDisplay aspect ratio : 4:3\nFrame rate : 25.000 fps\nStandard : PAL\nColor space : YUV\nChroma subsampling : 4:2:0\nBit depth : 8 bits\nScan type : Progressive\nCompression mode : Lossy\nBits/(Pixel*Frame) : 0.342\nStream size : 754 MiB (85%)\n\nAudio\nID : 192 (0xC0)\nFormat : MPEG Audio\nFormat version : Version 1\nFormat profile : Layer 2\nDuration : 2h 1mn\nBit rate mode : Constant\nBit rate : 128 Kbps\nChannel(s) : 2 channels\nSampling rate : 48.0 KHz\nCompression mode : Lossy\nStream size : 111 MiB (13%)\n\n\n\nScreens: &lt;a href=&quot;\nhttp://imgr.us/images/e2zbvtpqga3sxou64ar9.jpg&quot; rel=&quot;nofollow&quot; target=&quot;_NEW&quot;&gt;\nhttp://imgr.us/images/e2zbvtpqga3sxou64ar9.jpg&lt;/a&gt;","torrent":{"xt":"urn:btih:e3f400bc09d7077f224257d8c87a0f68a93f571f","amp;dn":"Khiladi+786+%282012%29+HIndi+HD+SCAM+MPEG-+Exclusive","amp;tr":["udp%3A%2F%2Ftracker.openbittorrent.com%3A80","udp%3A%2F%2Fopen.demonii.com%3A1337","udp%3A%2F%2Ftracker.coppersurfer.tk%3A6969","udp%3A%2F%2Fexodus.desync.com%3A6969"],"infoHash":"e3f400bc09d7077f224257d8c87a0f68a93f571f","infoHashBuffer":{"type":"Buffer","data":[227,244,0,188,9,215,7,127,34,66,87,216,200,122,15,104,169,63,87,31]},"announce":[],"urlList":[]}}